Coordinates
version=1
nRows=14
nColumns=63
inDegrees=yes

Units are S.I. units (second, meters, Newtons, ...)
If the header above contains a line with 'inDegrees', this indicates whether rotational values are in degrees (yes) or radians (no).

endheader
time	pelvis_tilt	pelvis_list	pelvis_rotation	pelvis_tx	pelvis_ty	pelvis_tz	hip_flexion_r	hip_adduction_r	hip_rotation_r	knee_angle_r	knee_angle_r_beta	ankle_angle_r	subtalar_angle_r	mtp_angle_r	hip_flexion_l	hip_adduction_l	hip_rotation_l	knee_angle_l	knee_angle_l_beta	ankle_angle_l	subtalar_angle_l	mtp_angle_l	L5_S1_Flex_Ext	L5_S1_Lat_Bending	L5_S1_axial_rotation	L4_L5_Flex_Ext	L4_L5_Lat_Bending	L4_L5_axial_rotation	L3_L4_Flex_Ext	L3_L4_Lat_Bending	L3_L4_axial_rotation	L2_L3_Flex_Ext	L2_L3_Lat_Bending	L2_L3_axial_rotation	L1_L2_Flex_Ext	L1_L2_Lat_Bending	L1_L2_axial_rotation	L1_T12_Flex_Ext	L1_T12_Lat_Bending	L1_T12_axial_rotation	Abs_r3	Abs_r2	Abs_r1	Abs_t1	Abs_t2	neck_flexion	neck_bending	neck_rotation	arm_flex_r	arm_add_r	arm_rot_r	elbow_flex_r	pro_sup_r	wrist_flex_r	wrist_dev_r	arm_flex_l	arm_add_l	arm_rot_l	elbow_flex_l	pro_sup_l	wrist_flex_l	wrist_dev_l
3.508475	-7.260780	-6.453825	70.501957	0.232352	1.000515	0.434709	6.804093	-4.174853	18.727831	6.828597	0.119181	22.853511	-5.984700	0.000000	4.230793	5.083001	-27.084190	4.883884	0.085240	22.665267	8.713343	0.000000	-0.108840	-1.135762	0.633820	-0.202127	-1.510564	0.673434	-0.178813	-2.761493	0.673434	-0.124393	-2.761493	0.554593	-0.101069	-2.316047	0.514979	-0.062191	-1.759296	0.475365	-0.777434	-12.847971	3.525118	0.000000	0.000000	12.141534	10.282717	-25.041397	4.750413	-28.721532	-8.252970	83.552126	66.356127	12.611382	0.631380	-7.347996	-22.347119	31.632734	24.718163	69.924638	-9.655039	-1.876654
3.525424	-7.150086	-6.924276	71.052132	0.230799	0.999703	0.435253	7.347534	-4.006454	17.751291	7.064779	0.123304	23.149983	-5.344824	0.000000	4.846537	4.855195	-26.379823	5.105812	0.089113	22.989811	8.456551	0.000000	-0.090204	-1.118249	0.749875	-0.167518	-1.487272	0.796742	-0.148197	-2.718912	0.796742	-0.103094	-2.718912	0.656141	-0.083764	-2.280334	0.609274	-0.051543	-1.732168	0.562406	-0.644320	-12.649862	4.170580	0.000000	0.000000	12.954452	10.366267	-25.131729	2.632463	-28.325756	-11.123228	77.759891	68.871923	13.530366	0.348938	-6.852025	-22.496630	32.257742	24.637425	69.959926	-9.907670	-2.212589
3.542373	-7.008070	-7.391795	71.633725	0.229145	0.998794	0.435838	7.896037	-3.815170	16.758303	7.353812	0.128348	23.452184	-4.788593	0.000000	5.469783	4.603174	-25.704547	5.341452	0.093226	23.417651	8.297355	0.000000	-0.078658	-1.090805	0.836232	-0.146076	-1.450770	0.888496	-0.129228	-2.652183	0.888496	-0.089899	-2.652183	0.731703	-0.073042	-2.224369	0.679438	-0.044945	-1.689657	0.627174	-0.561849	-12.339401	4.650870	0.000000	0.000000	13.971674	10.434608	-24.864082	1.436679	-27.725523	-10.964836	71.092691	69.993942	13.954724	0.157143	-6.244233	-22.436530	34.736720	24.181708	68.610584	-9.977791	-2.641937
3.559322	-6.836822	-7.823582	72.230217	0.227380	0.997809	0.436456	8.419724	-3.619071	15.752380	7.687738	0.134176	23.765830	-4.295266	0.000000	6.060996	4.348937	-25.057013	5.569812	0.097212	23.942172	8.232409	0.000000	-0.075379	-1.053077	0.891363	-0.139986	-1.400592	0.947073	-0.123840	-2.560451	0.947073	-0.086150	-2.560451	0.779942	-0.069997	-2.147434	0.724232	-0.043071	-1.631216	0.668522	-0.538422	-11.912614	4.957493	0.000000	0.000000	15.130146	10.409003	-24.165813	1.124622	-26.949280	-8.072826	63.706651	69.811102	13.688693	-0.127862	-5.564010	-22.189617	38.796183	23.437592	66.057499	-9.856729	-3.078817
3.576271	-6.607113	-8.213195	72.840852	0.225476	0.996775	0.437074	8.903112	-3.397029	14.627714	8.068151	0.140816	24.115730	-3.719467	0.000000	6.601712	4.070429	-24.359213	5.788623	0.101031	24.559781	8.162950	0.000000	-0.080552	-1.000693	0.916961	-0.149594	-1.330921	0.974271	-0.132339	-2.433084	0.974271	-0.092063	-2.433084	0.802341	-0.074801	-2.040613	0.745030	-0.046028	-1.550073	0.687720	-0.575377	-11.320037	5.099860	0.000000	0.000000	16.399139	10.262814	-23.021849	1.533121	-26.056936	-2.929231	55.901368	68.252770	12.730095	-0.492678	-4.777540	-21.793199	44.506638	22.398557	62.089163	-9.662850	-3.621633
3.593220	-6.304074	-8.532520	73.481153	0.223429	0.995735	0.437647	9.296910	-3.141076	13.385949	8.459697	0.147650	24.468056	-3.098819	0.000000	7.064692	3.749985	-23.748484	6.014230	0.104968	25.285099	8.317221	0.000000	-0.095589	-0.932645	0.908574	-0.177519	-1.240418	0.965360	-0.157044	-2.267633	0.965360	-0.109249	-2.267633	0.795003	-0.088764	-1.901850	0.738217	-0.054620	-1.444667	0.681431	-0.682786	-10.550267	5.053218	0.000000	0.000000	17.720904	9.961503	-21.444184	2.440383	-25.115086	3.770152	48.034006	65.424439	11.093436	-0.976219	-3.947049	-21.231680	51.134385	21.175037	57.296933	-9.365263	-4.166107
3.610169	-5.924803	-8.785107	74.150252	0.221260	0.994677	0.438090	9.578814	-2.834588	12.232340	8.815005	0.153851	24.746571	-2.710408	0.000000	7.437586	3.397897	-22.994167	6.216694	0.108502	26.048722	8.391739	0.000000	-0.116571	-0.848498	0.869028	-0.216484	-1.128503	0.923342	-0.191515	-2.063038	0.923342	-0.133229	-2.063038	0.760400	-0.108248	-1.730257	0.706085	-0.066609	-1.314324	0.651771	-0.832656	-9.598381	4.833274	0.000000	0.000000	19.043529	9.485086	-19.480359	3.592551	-24.154057	12.269196	40.340323	61.499987	8.863659	-1.566381	-3.123782	-20.488519	58.741142	19.740571	51.866103	-8.964504	-4.678821
3.627119	-5.444070	-8.942067	74.821407	0.218983	0.993657	0.438353	9.715492	-2.463505	11.067025	9.124493	0.159252	25.015675	-2.323887	0.000000	7.680802	2.996377	-22.154045	6.391801	0.111558	26.852544	8.423098	0.000000	-0.145474	-0.746006	0.807291	-0.270159	-0.992188	0.857747	-0.238998	-1.813838	0.857747	-0.166262	-1.813838	0.706380	-0.135087	-1.521255	0.655924	-0.083124	-1.155563	0.605469	-1.039103	-8.438966	4.489912	0.000000	0.000000	20.291963	8.765248	-17.199527	4.774499	-23.234482	21.738368	33.127121	56.411249	6.342190	-2.175324	-2.283232	-19.597628	66.988412	18.154254	45.828381	-8.527343	-5.238839
3.644068	-4.878491	-8.989146	75.498138	0.216685	0.992718	0.438315	9.659268	-2.033522	10.107163	9.322731	0.162712	25.195014	-2.215432	0.000000	7.756512	2.563803	-21.093590	6.501456	0.113472	27.611770	8.233305	0.000000	-0.180175	-0.630122	0.727806	-0.334604	-0.838062	0.773294	-0.296010	-1.532078	0.773294	-0.205922	-1.532078	0.636830	-0.167311	-1.284945	0.591342	-0.102952	-0.976059	0.545854	-1.286975	-7.128065	4.047838	0.000000	0.000000	21.411939	7.830945	-14.755661	5.807555	-22.332190	32.415958	26.502871	50.377349	3.836286	-2.850153	-1.491049	-18.563756	75.883927	16.410314	39.503829	-8.026236	-5.765480
3.661017	-4.248611	-8.937344	76.193934	0.214408	0.991882	0.437919	9.399129	-1.558116	9.341788	9.359930	0.163362	25.303749	-2.331155	0.000000	7.666577	2.106643	-19.892637	6.525903	0.113898	28.297989	7.918111	0.000000	-0.216157	-0.504951	0.631848	-0.401425	-0.671585	0.671339	-0.355125	-1.227739	0.671339	-0.247046	-1.227739	0.552867	-0.200724	-1.029697	0.513377	-0.123512	-0.782170	0.473886	-1.543989	-5.712111	3.514152	0.000000	0.000000	22.354860	6.776783	-12.209391	6.570883	-21.447265	43.778709	20.645403	43.610141	1.507976	-3.624582	-0.787811	-17.415813	84.839510	14.591013	33.152565	-7.497290	-6.273611
3.677966	-3.571453	-8.754305	76.901440	0.212242	0.991239	0.437129	8.903062	-1.053478	8.826001	9.231285	0.161116	25.330573	-2.723154	0.000000	7.376113	1.643364	-18.531833	6.466941	0.112869	28.863893	7.391862	0.000000	-0.257186	-0.376644	0.524167	-0.477620	-0.500936	0.556927	-0.422531	-0.915772	0.556927	-0.293938	-0.915772	0.458646	-0.238823	-0.768052	0.425885	-0.146956	-0.583421	0.393125	-1.837053	-4.260670	2.915258	0.000000	0.000000	23.077805	5.643673	-9.729800	7.075133	-20.538109	55.498723	15.540795	36.629647	-0.116553	-4.487596	-0.158350	-16.233107	94.263545	12.693922	26.748635	-7.009711	-6.735862
3.694915	-2.870616	-8.452487	77.581033	0.210304	0.990810	0.435922	8.186681	-0.534359	8.611750	8.940105	0.156034	25.283336	-3.382052	0.000000	6.886312	1.182195	-17.146694	6.322803	0.110354	29.303653	6.752854	0.000000	-0.300628	-0.249496	0.408029	-0.558296	-0.331830	0.433531	-0.493902	-0.606624	0.433531	-0.343588	-0.606624	0.357026	-0.279163	-0.508772	0.331524	-0.171779	-0.386469	0.306022	-2.147355	-2.822348	2.269336	0.000000	0.000000	23.560619	4.483703	-7.354118	7.284119	-19.648459	67.122409	11.327074	29.383308	-1.401453	-5.377389	0.318567	-15.036035	103.482932	10.820500	20.658285	-6.539464	-7.110677
3.711864	-2.152982	-8.046273	78.293254	0.208528	0.990606	0.434325	7.262153	0.005473	8.630966	8.477885	0.147967	25.130611	-4.305537	0.000000	6.233822	0.712376	-15.693818	6.124024	0.106884	29.608854	5.987278	0.000000	-0.346327	-0.125196	0.275635	-0.643163	-0.166511	0.292862	-0.568980	-0.304402	0.292862	-0.395817	-0.304402	0.241181	-0.321599	-0.255300	0.223954	-0.197891	-0.193929	0.206726	-2.473777	-1.416243	1.533000	0.000000	0.000000	23.858985	3.369942	-5.133650	7.214914	-18.795196	78.575690	8.036402	22.204847	-2.429122	-6.212944	0.630982	-13.852626	112.399942	9.017017	15.101927	-6.154020	-7.373588
3.728814	-1.467243	-7.565825	78.976392	0.207001	0.990590	0.432372	6.195035	0.516111	8.880728	7.899352	0.137870	24.925087	-5.417160	0.000000	5.454947	0.270700	-14.352639	5.897103	0.102924	29.797299	5.224851	0.000000	-0.390051	-0.010519	0.140377	-0.724364	-0.013990	0.149151	-0.640815	-0.025576	0.149151	-0.445789	-0.025576	0.122830	-0.362201	-0.021450	0.114056	-0.222875	-0.016294	0.105283	-2.786096	-0.118992	0.780736	0.000000	0.000000	23.998844	2.347101	-3.150680	6.818386	-17.979867	88.824680	5.753674	15.038753	-2.969131	-6.732111	0.750272	-12.734056	120.686831	7.348721	10.263231	-5.852711	-7.525201
